Coordinates
version=1
nRows=7
nColumns=63
inDegrees=yes

Units are S.I. units (second, meters, Newtons, ...)
If the header above contains a line with 'inDegrees', this indicates whether rotational values are in degrees (yes) or radians (no).

endheader
time	pelvis_tilt	pelvis_list	pelvis_rotation	pelvis_tx	pelvis_ty	pelvis_tz	hip_flexion_r	hip_adduction_r	hip_rotation_r	knee_angle_r	knee_angle_r_beta	ankle_angle_r	subtalar_angle_r	mtp_angle_r	hip_flexion_l	hip_adduction_l	hip_rotation_l	knee_angle_l	knee_angle_l_beta	ankle_angle_l	subtalar_angle_l	mtp_angle_l	L5_S1_Flex_Ext	L5_S1_Lat_Bending	L5_S1_axial_rotation	L4_L5_Flex_Ext	L4_L5_Lat_Bending	L4_L5_axial_rotation	L3_L4_Flex_Ext	L3_L4_Lat_Bending	L3_L4_axial_rotation	L2_L3_Flex_Ext	L2_L3_Lat_Bending	L2_L3_axial_rotation	L1_L2_Flex_Ext	L1_L2_Lat_Bending	L1_L2_axial_rotation	L1_T12_Flex_Ext	L1_T12_Lat_Bending	L1_T12_axial_rotation	Abs_r3	Abs_r2	Abs_r1	Abs_t1	Abs_t2	neck_flexion	neck_bending	neck_rotation	arm_flex_r	arm_add_r	arm_rot_r	elbow_flex_r	pro_sup_r	wrist_flex_r	wrist_dev_r	arm_flex_l	arm_add_l	arm_rot_l	elbow_flex_l	pro_sup_l	wrist_flex_l	wrist_dev_l
      1.28333333	      1.00468994	      3.53697247	     99.79322504	      0.12800697	      0.85247734	      0.51872154	      4.30275244	      1.59725465	     -1.74903008	     15.42676449	      0.26924783	     33.28418897	     -8.96639866	      0.00000000	      1.20145060	     -2.38332174	      7.11588476	      9.30730716	      0.16244315	     30.13379347	      9.91279218	      0.00000000	     -0.16565937	      0.33921915	      0.01641088	     -0.30764602	      0.45116147	      0.01743656	     -0.27216178	      0.82477744	      0.01743656	     -0.18933210	      0.82477744	      0.01435952	     -0.15383129	      0.69173569	      0.01333384	     -0.09465777	      0.52545046	      0.01230816	     -1.18328833	      3.83731486	      0.09127238	      0.00000000	      0.00000000	     10.87544393	      2.19154560	     -2.51272149	     37.80312034	     -6.14649598	     15.27382062	    143.30344643	     88.20111957	      8.81296788	     11.64221167	     35.56406377	     -5.92614322	     23.51833108	    148.48261011	     89.04650330	      0.63466872	      2.61296842
      1.30000000	      0.97268199	      3.40185517	     99.97193666	      0.12776955	      0.85221939	      0.51858743	      4.44077305	      1.53560245	     -1.58952861	     15.46368895	      0.26989229	     33.61644734	     -8.85692293	      0.00000000	      1.32787745	     -2.31787910	      7.29430523	      9.27872999	      0.16194439	     30.20638505	      9.93991342	      0.00000000	     -0.16496162	      0.33174045	     -0.02371568	     -0.30635022	      0.44121479	     -0.02519791	     -0.27101544	      0.80659372	     -0.02519791	     -0.18853463	      0.80659372	     -0.02075122	     -0.15318336	      0.67648512	     -0.01926899	     -0.09425907	      0.51386595	     -0.01778676	     -1.17830433	      3.75271428	     -0.13189952	      0.00000000	      0.00000000	     10.39206880	      2.02224249	     -2.50182100	     37.81474338	     -5.74430746	     15.28179552	    143.03444423	     88.27242948	      8.66738963	     11.50755425	     35.52162253	     -6.36086469	     23.09404545	    148.35804694	     89.11364402	      0.66342359	      2.45166158
      1.31666667	      0.95584304	      3.27778590	    100.15864655	      0.12742727	      0.85205192	      0.51857744	      4.53789507	      1.48793094	     -1.53102601	     15.44793127	      0.26961726	     33.76727685	     -8.83205665	      0.00000000	      1.45535101	     -2.26060862	      7.36427894	      9.25425898	      0.16151729	     30.13670585	      9.96205627	      0.00000000	     -0.16714318	      0.32647988	     -0.02889326	     -0.31040160	      0.43421824	     -0.03069909	     -0.27459953	      0.79380318	     -0.03069909	     -0.19102794	      0.79380318	     -0.02528160	     -0.15520916	      0.66575777	     -0.02347578	     -0.09550561	      0.50571733	     -0.02166995	     -1.19388702	      3.69320568	     -0.16069565	      0.00000000	      0.00000000	     10.26221168	      1.90001904	     -2.43101117	     37.83768634	     -5.56866672	     15.07135885	    142.81303104	     88.27821211	      8.55782564	     11.39228838	     35.48564079	     -6.51888071	     22.73912149	    148.08818193	     89.16123016	      0.61753676	      2.38228117
      1.33333333	      0.70476566	      3.01605489	    100.85580620	      0.12682425	      0.85183145	      0.51860236	      4.74893347	      1.13939088	     -1.98383733	     15.59902271	      0.27225431	     34.00322703	     -8.88437317	      0.00000000	      1.78427432	     -1.93054304	      7.99464311	      9.30858864	      0.16246552	     29.92586173	      9.82613470	      0.00000000	     -0.14598691	      0.29616726	     -0.16745460	     -0.27111229	      0.39390246	     -0.17792051	     -0.23984189	      0.72010108	     -0.17792051	     -0.16684844	      0.72010108	     -0.14652278	     -0.13556344	      0.60394428	     -0.13605686	     -0.08341692	      0.45876309	     -0.12559095	     -1.04276990	      3.35030329	     -0.93133225	      0.00000000	      0.00000000	      9.75550907	      1.25104209	     -1.75881150	     37.79201461	     -4.99892918	     15.34873145	    141.73410359	     88.38007093	      8.60886271	      8.75759172	     35.36672105	     -6.90118709	     21.88959005	    147.68192417	     89.22052446	      1.16786997	      0.93600052
      1.35000000	      0.61592471	      2.83556740	    101.05101837	      0.12672713	      0.85158360	      0.51856644	      4.84323065	      1.00873268	     -2.05815261	     15.58256161	      0.27196701	     33.95685541	     -8.92484953	      0.00000000	      1.93181876	     -1.81188133	      7.97060392	      9.27247786	      0.16183527	     29.73677988	      9.80546537	      0.00000000	     -0.14357051	      0.27639621	     -0.14431607	     -0.26662479	      0.36760696	     -0.15333582	     -0.23587198	      0.67202974	     -0.15333582	     -0.16408673	      0.67202974	     -0.12627656	     -0.13331957	      0.56362715	     -0.11725681	     -0.08203619	      0.42813773	     -0.10823705	     -1.02550976	      3.12664920	     -0.80264269	      0.00000000	      0.00000000	      9.58931354	      0.97416120	     -1.76587347	     37.89896243	     -4.87700676	     14.88551024	    141.20622947	     88.41936569	      8.48340032	      8.54759595	     35.57704348	     -6.81647002	     21.55266208	    147.26998268	     89.25976233	      1.05697069	      0.80861657
      1.36666667	      0.33792347	      2.57253501	    101.22982686	      0.12669569	      0.85129981	      0.51858562	      5.04253069	      0.66241866	     -2.14834044	     15.69047647	      0.27385048	     33.91796848	     -9.04387480	      0.00000000	      2.07061312	     -1.47877838	      7.85677586	      9.13661776	      0.15946406	     29.39064229	      9.82395284	      0.00000000	     -0.13607937	      0.23099161	     -0.10908426	     -0.25271299	      0.30721883	     -0.11590203	     -0.22356479	      0.56163299	     -0.11590203	     -0.15552511	      0.56163299	     -0.09544873	     -0.12636330	      0.47103808	     -0.08863096	     -0.07775575	      0.35780600	     -0.08181320	     -0.97200131	      2.61302323	     -0.60669395	      0.00000000	      0.00000000	      9.18947382	      0.08600209	     -2.35209325	     37.97717074	     -4.70604280	     14.20891985	    140.29927417	     88.61655097	      8.50985939	      7.31601655	     35.83184268	     -6.91952409	     21.18007518	    146.74887525	     89.28301485	      0.75828678	     -0.27655130
      1.38333333	      0.37011009	      2.36911720	    101.32243670	      0.12647134	      0.85086502	      0.51866912	      5.15234272	      0.63927835	     -2.28621683	     15.60701264	      0.27239376	     33.69090831	     -9.08471046	      0.00000000	      2.21555274	     -1.47134273	      7.74366990	      9.03990878	      0.15777617	     29.22683080	      9.78200453	      0.00000000	     -0.13779025	      0.22278877	     -0.07365562	     -0.25589027	      0.29630906	     -0.07825910	     -0.22637560	      0.54168861	     -0.07825910	     -0.15748048	      0.54168861	     -0.06444867	     -0.12795203	      0.45431085	     -0.05984519	     -0.07873335	      0.34509980	     -0.05524172	     -0.98422198	      2.52023109	     -0.40965047	      0.00000000	      0.00000000	      9.04123220	      0.00012686	     -2.42030934	     38.29696322	     -4.67896958	     13.42725667	    139.55773328	     88.69468882	      8.24824733	      7.28510094	     35.97885981	     -6.89394034	     20.59513707	    146.53006593	     89.26934303	      0.46937228	     -0.36806042
